<svg width="20" height="20" viewBox="0 0 20 20" fill="none" xmlns="http://www.w3.org/2000/svg">
<path d="M10.0007 7.24992C9.27131 7.24992 8.57183 7.53965 8.05611 8.05537C7.54038 8.5711 7.25065 9.27057 7.25065 9.99992C7.25065 10.7293 7.54038 11.4287 8.05611 11.9445C8.57183 12.4602 9.27131 12.7499 10.0007 12.7499C10.73 12.7499 11.4295 12.4602 11.9452 11.9445C12.4609 11.4287 12.7507 10.7293 12.7507 9.99992C12.7507 9.27057 12.4609 8.5711 11.9452 8.05537C11.4295 7.53965 10.73 7.24992 10.0007 7.24992ZM10.0007 5.41659C11.2162 5.41659 12.382 5.89947 13.2416 6.75901C14.1011 7.61855 14.584 8.78434 14.584 9.99992C14.584 11.2155 14.1011 12.3813 13.2416 13.2408C12.382 14.1004 11.2162 14.5833 10.0007 14.5833C8.78508 14.5833 7.61929 14.1004 6.75974 13.2408C5.9002 12.3813 5.41732 11.2155 5.41732 9.99992C5.41732 8.78434 5.9002 7.61855 6.75974 6.75901C7.61929 5.89947 8.78508 5.41659 10.0007 5.41659V5.41659ZM15.959 5.18742C15.959 5.49131 15.8383 5.78276 15.6234 5.99764C15.4085 6.21253 15.117 6.33325 14.8132 6.33325C14.5093 6.33325 14.2178 6.21253 14.0029 5.99764C13.788 5.78276 13.6673 5.49131 13.6673 5.18742C13.6673 4.88352 13.788 4.59208 14.0029 4.37719C14.2178 4.16231 14.5093 4.04159 14.8132 4.04159C15.117 4.04159 15.4085 4.16231 15.6234 4.37719C15.8383 4.59208 15.959 4.88352 15.959 5.18742V5.18742ZM10.0007 2.66659C7.73282 2.66659 7.36248 2.673 6.3074 2.71975C5.58873 2.75367 5.10657 2.84992 4.65923 3.02409C4.28488 3.16153 3.94645 3.38182 3.66923 3.6685C3.38232 3.9457 3.16172 4.28412 3.0239 4.6585C2.84973 5.10767 2.75348 5.58892 2.72048 6.30667C2.67282 7.31867 2.66732 7.6725 2.66732 9.99992C2.66732 12.2678 2.67373 12.6381 2.72048 13.6932C2.7544 14.4109 2.85065 14.894 3.0239 15.3404C3.17973 15.7392 3.36307 16.0261 3.6674 16.3304C3.97632 16.6384 4.26323 16.8227 4.6574 16.9748C5.11023 17.1499 5.5924 17.2471 6.3074 17.2801C7.3194 17.3278 7.67323 17.3333 10.0007 17.3333C12.2685 17.3333 12.6388 17.3268 13.6939 17.2801C14.4107 17.2462 14.8938 17.1499 15.3412 16.9767C15.7149 16.8385 16.0532 16.6187 16.3312 16.3332C16.6401 16.0243 16.8243 15.7373 16.9765 15.3432C17.1507 14.8913 17.2478 14.4082 17.2808 13.6932C17.3285 12.6812 17.334 12.3273 17.334 9.99992C17.334 7.73209 17.3276 7.36175 17.2808 6.30667C17.2469 5.58984 17.1507 5.10583 16.9765 4.6585C16.8383 4.2845 16.6181 3.94622 16.3321 3.6685C16.055 3.38144 15.7165 3.16082 15.3421 3.02317C14.8929 2.849 14.4107 2.75275 13.6939 2.71975C12.6819 2.67209 12.3281 2.66659 10.0007 2.66659ZM10.0007 0.833252C12.4912 0.833252 12.802 0.842419 13.7792 0.888252C14.7554 0.934085 15.42 1.08717 16.0048 1.3145C16.6098 1.54734 17.1195 1.86267 17.6292 2.37142C18.0953 2.82966 18.4559 3.38396 18.6861 3.99575C18.9125 4.57967 19.0665 5.24517 19.1123 6.22142C19.1554 7.19858 19.1673 7.50933 19.1673 9.99992C19.1673 12.4905 19.1582 12.8013 19.1123 13.7784C19.0665 14.7547 18.9125 15.4193 18.6861 16.0041C18.4566 16.6162 18.0958 17.1707 17.6292 17.6284C17.1708 18.0944 16.6165 18.455 16.0048 18.6853C15.4209 18.9118 14.7554 19.0658 13.7792 19.1116C12.802 19.1547 12.4912 19.1666 10.0007 19.1666C7.51007 19.1666 7.19932 19.1574 6.22215 19.1116C5.2459 19.0658 4.58132 18.9118 3.99648 18.6853C3.38445 18.4557 2.83005 18.095 2.37215 17.6284C1.90594 17.1703 1.54525 16.6159 1.31523 16.0041C1.0879 15.4202 0.934818 14.7547 0.888984 13.7784C0.845901 12.8013 0.833984 12.4905 0.833984 9.99992C0.833984 7.50933 0.843151 7.19858 0.888984 6.22142C0.934818 5.24425 1.0879 4.58058 1.31523 3.99575C1.54462 3.38358 1.90539 2.82913 2.37215 2.37142C2.83018 1.90505 3.38454 1.54434 3.99648 1.3145C4.58132 1.08717 5.24498 0.934085 6.22215 0.888252C7.19932 0.845169 7.51007 0.833252 10.0007 0.833252Z" fill="#1A191E"/>
</svg>
