<svg width="18" height="18" viewBox="0 0 18 18" fill="" xmlns="http://www.w3.org/2000/svg">
<path d="M14.8071 14.8108H12.3642V10.9818C12.3642 10.0688 12.3458 8.89367 11.09 8.89367C9.81675 8.89367 9.62242 9.88733 9.62242 10.9149V14.8108H7.17858V6.9375H9.52525V8.01H9.55733C9.8855 7.39217 10.683 6.73858 11.8747 6.73858C14.3497 6.73858 14.808 8.36842 14.808 10.4887V14.8108H14.8071ZM4.41942 5.86042C4.23293 5.86066 4.04822 5.82409 3.87589 5.75281C3.70356 5.68152 3.547 5.57693 3.41517 5.44502C3.28334 5.3131 3.17885 5.15647 3.10768 4.98409C3.0365 4.81172 3.00005 4.62699 3.00042 4.4405C3.0006 4.15985 3.084 3.88555 3.24007 3.6523C3.39614 3.41905 3.61788 3.23731 3.87724 3.13008C4.13659 3.02285 4.42193 2.99493 4.69715 3.04986C4.97237 3.10479 5.22513 3.2401 5.42345 3.43868C5.62177 3.63726 5.75675 3.89019 5.81133 4.16548C5.8659 4.44078 5.83762 4.72607 5.73005 4.98529C5.62248 5.24451 5.44046 5.46601 5.20701 5.62178C4.97355 5.77755 4.69915 5.8606 4.4185 5.86042H4.41942ZM5.64408 14.8108H3.19383V6.9375H5.645V14.8108H5.64408ZM16.0308 0.75H1.96825C1.29358 0.75 0.75 1.28167 0.75 1.93892V16.0611C0.75 16.7183 1.2945 17.25 1.96733 17.25H16.0272C16.7 17.25 17.25 16.7183 17.25 16.0611V1.93892C17.25 1.28167 16.7 0.75 16.0272 0.75H16.0299H16.0308Z" fill=""/>
</svg>
