<svg width="21" height="19" viewBox="0 0 21 19" fill="none" xmlns="http://www.w3.org/2000/svg">
<path d="M13.758 2.15023C13.6351 2.75516 13.6351 3.37863 13.758 3.98356H3.13476L10.0556 10.0904L14.6838 5.94706C15.0743 6.43014 15.562 6.83256 16.1166 7.12498L10.0657 12.5434L2.66634 6.01489V16.8169H17.333V7.55856C17.9379 7.68145 18.5614 7.68145 19.1663 7.55856V17.7336C19.1663 17.9767 19.0698 18.2098 18.8979 18.3817C18.7259 18.5537 18.4928 18.6502 18.2497 18.6502H1.74967C1.50656 18.6502 1.2734 18.5537 1.10149 18.3817C0.929585 18.2098 0.833008 17.9767 0.833008 17.7336V3.06689C0.833008 2.82378 0.929585 2.59062 1.10149 2.41871C1.2734 2.2468 1.50656 2.15023 1.74967 2.15023H13.758ZM18.2497 5.81689C17.8885 5.81689 17.5309 5.74576 17.1973 5.60756C16.8636 5.46936 16.5605 5.2668 16.3051 5.01144C16.0498 4.75608 15.8472 4.45292 15.709 4.11927C15.5708 3.78563 15.4997 3.42803 15.4997 3.06689C15.4997 2.70576 15.5708 2.34816 15.709 2.01452C15.8472 1.68087 16.0498 1.37771 16.3051 1.12235C16.5605 0.86699 16.8636 0.664426 17.1973 0.526226C17.5309 0.388025 17.8885 0.316895 18.2497 0.316895C18.979 0.316895 19.6785 0.606626 20.1942 1.12235C20.7099 1.63808 20.9997 2.33755 20.9997 3.06689C20.9997 3.79624 20.7099 4.49571 20.1942 5.01144C19.6785 5.52716 18.979 5.81689 18.2497 5.81689Z" fill="white"/>
</svg>
