<svg width="18" height="17" viewBox="0 0 18 17" fill="none" xmlns="http://www.w3.org/2000/svg">
<path d="M17.25 12.4518V15.6931C17.2501 15.9252 17.1622 16.1487 17.004 16.3185C16.8457 16.4883 16.629 16.5917 16.3975 16.608C15.9969 16.6355 15.6697 16.6501 15.4167 16.6501C7.31608 16.6501 0.75 10.0841 0.75 1.98348C0.75 1.73048 0.76375 1.40323 0.792167 1.00265C0.808412 0.771137 0.911866 0.554406 1.08165 0.396188C1.25144 0.237969 1.47492 0.150042 1.707 0.150147H4.94833C5.06204 0.150032 5.17172 0.192184 5.25608 0.268415C5.34045 0.344647 5.39346 0.449514 5.40483 0.562647C5.42592 0.77348 5.44517 0.94123 5.4635 1.06865C5.64567 2.33999 6.019 3.57649 6.57083 4.73623C6.65792 4.91956 6.60108 5.13865 6.43608 5.25598L4.45792 6.66948C5.66742 9.48773 7.91334 11.7336 10.7316 12.9431L12.1432 10.9686C12.201 10.888 12.2851 10.8301 12.3811 10.8052C12.4771 10.7802 12.5788 10.7897 12.6685 10.8321C13.8281 11.3829 15.0643 11.7553 16.3352 11.9366C16.4626 11.955 16.6303 11.9751 16.8393 11.9953C16.9523 12.0069 17.0569 12.06 17.133 12.1443C17.209 12.2287 17.2511 12.3383 17.2509 12.4518H17.25Z" fill="white"/>
</svg>
