<svg width="20" height="16" viewBox="0 0 20 16" fill="" xmlns="http://www.w3.org/2000/svg">
<path d="M19.3153 2.1846C18.6155 2.49415 17.8733 2.69745 17.1134 2.78777C17.9144 2.30875 18.5138 1.55486 18.8001 0.666599C18.0484 1.11393 17.2244 1.42743 16.3654 1.59702C15.7885 0.979713 15.0238 0.570316 14.1902 0.432469C13.3565 0.294622 12.5007 0.436049 11.7558 0.834765C11.0108 1.23348 10.4185 1.86714 10.0708 2.63724C9.72313 3.40734 9.63963 4.27073 9.83328 5.09318C8.30896 5.01678 6.81775 4.62066 5.45646 3.93054C4.09516 3.24042 2.89423 2.27173 1.93161 1.08735C1.59088 1.6726 1.41182 2.33789 1.41278 3.0151C1.41278 4.34427 2.08928 5.51852 3.11778 6.20602C2.50912 6.18685 1.91386 6.02248 1.38161 5.7266V5.77427C1.38179 6.65949 1.68811 7.51741 2.24864 8.20257C2.80916 8.88773 3.58938 9.35795 4.45703 9.53352C3.89201 9.68663 3.29956 9.7092 2.72453 9.59952C2.96915 10.3615 3.44595 11.0279 4.08815 11.5054C4.73035 11.9829 5.50581 12.2476 6.30594 12.2624C5.51072 12.887 4.60019 13.3487 3.62642 13.6211C2.65264 13.8935 1.63473 13.9713 0.630859 13.8501C2.38325 14.9771 4.4232 15.5754 6.50669 15.5734C13.5586 15.5734 17.415 9.73152 17.415 4.6651C17.415 4.5001 17.4104 4.33327 17.4031 4.1701C18.1537 3.62759 18.8016 2.95553 19.3162 2.18552L19.3153 2.1846Z" fill=""/>
</svg>
