<svg width="40" height="41" viewBox="0 0 40 41" fill="none" xmlns="http://www.w3.org/2000/svg">
<rect y="0.223633" width="40" height="40" rx="6" fill="#5BB5A2"/>
<path d="M29.1628 25.9345C29.1628 26.6009 28.7915 27.8842 27.9583 28.5891C27.7915 28.7175 27.6237 28.6451 27.697 28.458C27.94 27.864 28.4964 26.49 28.2351 26.1737C28.0518 25.9335 27.291 25.951 26.642 26.0069C26.345 26.0445 26.0855 26.0619 25.883 26.1031C25.6969 26.1187 25.6584 25.9537 25.8454 25.8254C26.0855 25.6558 26.345 25.5275 26.6429 25.4331C27.697 25.1177 28.9162 25.3075 29.0904 25.5091C29.1234 25.5476 29.1637 25.6558 29.1637 25.9335L29.1628 25.9345ZM27.4019 27.1206C27.1598 27.3055 26.9057 27.474 26.641 27.6248C24.6959 28.7935 22.1769 29.4059 19.9879 29.4059C16.4651 29.4059 13.3145 28.107 10.9239 25.9335C10.7195 25.7667 10.889 25.5247 11.1283 25.6558C13.7041 27.1591 16.8923 28.0685 20.1932 28.0685C22.4 28.0622 24.5865 27.647 26.642 26.8438C26.7905 26.7879 26.9573 26.7118 27.103 26.6586C27.4395 26.5074 27.7355 26.8814 27.4019 27.1206ZM21.746 17.0098C21.746 16.0556 21.7836 15.4936 21.4674 15.0115C21.1869 14.6145 20.7038 14.3762 20.03 14.4138C19.2985 14.4541 18.513 14.9335 18.3122 15.8126C18.2737 16.0143 18.1555 16.2123 17.9125 16.2554L15.6795 15.9712C15.52 15.9345 15.278 15.8126 15.3569 15.4936C15.8363 12.971 17.9923 12.0919 20.03 11.9736H20.5095C21.6278 11.9736 23.0642 12.2935 23.9836 13.1323C25.0992 14.1736 24.981 15.5725 24.981 17.0923V20.692C24.981 21.7719 25.4182 22.2504 25.8591 22.8132C25.9783 23.014 26.0186 23.2505 25.8179 23.4136C25.2406 23.9287 24.6547 24.4342 24.0606 24.9298C23.9011 25.0517 23.6133 25.0646 23.5015 24.9711C22.7956 24.3798 22.6233 24.0516 22.186 23.4512C21.4252 24.2496 20.7872 24.6906 20.0273 24.9298C19.4929 25.0654 18.9433 25.132 18.392 25.1278C16.4761 25.1278 14.9581 23.9334 14.9581 21.5711C14.9581 19.6929 15.9573 18.416 17.4331 17.8119C18.909 17.2069 21.054 17.0144 21.7451 17.0107L21.746 17.0098ZM21.3079 21.7691C21.7845 20.9698 21.7451 20.3153 21.7451 18.8495C21.1484 18.8495 20.548 18.8908 20.03 19.0127C19.0721 19.2905 18.3122 19.8936 18.3122 21.1715C18.3122 22.1706 18.832 22.8508 19.7101 22.8508C19.8311 22.8508 19.9375 22.8361 20.03 22.8095C20.6442 22.639 21.0274 22.331 21.3079 21.7691Z" fill="white"/>
</svg>
