<svg width="40" height="41" viewBox="0 0 40 41" fill="none" xmlns="http://www.w3.org/2000/svg">
<rect y="0.223633" width="40" height="40" rx="6" fill="#5BB5A2"/>
<path d="M19.6555 15.8438C18.8525 15.8438 17.6095 14.9308 16.3005 14.9638C14.5735 14.9858 12.9895 15.9648 12.0985 17.5158C10.3055 20.6288 11.6365 25.2268 13.3855 27.7568C14.2435 28.9888 15.2555 30.3748 16.5975 30.3308C17.8845 30.2758 18.3685 29.4948 19.9305 29.4948C21.4815 29.4948 21.9215 30.3308 23.2855 30.2978C24.6715 30.2758 25.5515 29.0438 26.3985 27.8008C27.3775 26.3708 27.7845 24.9848 27.8065 24.9078C27.7735 24.8968 25.1115 23.8738 25.0785 20.7938C25.0565 18.2198 27.1795 16.9878 27.2785 16.9328C26.0685 15.1618 24.2095 14.9638 23.5605 14.9198C21.8665 14.7878 20.4475 15.8438 19.6555 15.8438ZM22.5155 13.2478C23.2305 12.3898 23.7035 11.1908 23.5715 10.0028C22.5485 10.0468 21.3165 10.6848 20.5795 11.5428C19.9195 12.3018 19.3475 13.5228 19.5015 14.6888C20.6345 14.7768 21.8005 14.1058 22.5155 13.2478Z" fill="white"/>
</svg>
