<svg width="50" height="51" viewBox="0 0 50 51" fill="none" xmlns="http://www.w3.org/2000/svg">
<rect y="0.900146" width="50" height="50" rx="25" fill="#E8F2EE"/>
<path d="M19.1663 16.5669V35.2335H30.833V16.5669H19.1663ZM17.9997 14.2335H31.9997C32.3091 14.2335 32.6058 14.3564 32.8246 14.5752C33.0434 14.794 33.1663 15.0908 33.1663 15.4002V36.4002C33.1663 36.7096 33.0434 37.0064 32.8246 37.2251C32.6058 37.4439 32.3091 37.5669 31.9997 37.5669H17.9997C17.6903 37.5669 17.3935 37.4439 17.1747 37.2251C16.9559 37.0064 16.833 36.7096 16.833 36.4002V15.4002C16.833 15.0908 16.9559 14.794 17.1747 14.5752C17.3935 14.3564 17.6903 14.2335 17.9997 14.2335ZM24.9997 31.7335C25.3091 31.7335 25.6058 31.8564 25.8246 32.0752C26.0434 32.294 26.1663 32.5908 26.1663 32.9002C26.1663 33.2096 26.0434 33.5064 25.8246 33.7251C25.6058 33.9439 25.3091 34.0669 24.9997 34.0669C24.6903 34.0669 24.3935 33.9439 24.1747 33.7251C23.9559 33.5064 23.833 33.2096 23.833 32.9002C23.833 32.5908 23.9559 32.294 24.1747 32.0752C24.3935 31.8564 24.6903 31.7335 24.9997 31.7335V31.7335Z" fill="#5BB5A2"/>
</svg>
