<svg width="50" height="51" viewBox="0 0 50 51" fill="none" xmlns="http://www.w3.org/2000/svg">
<rect y="0.900146" width="50" height="50" rx="25" fill="#E8F2EE"/>
<path d="M24.9997 37.5667C18.5562 37.5667 13.333 32.3436 13.333 25.9001C13.333 19.4566 18.5562 14.2334 24.9997 14.2334C31.4432 14.2334 36.6663 19.4566 36.6663 25.9001C36.6663 32.3436 31.4432 37.5667 24.9997 37.5667ZM24.9997 35.2334C27.475 35.2334 29.849 34.2501 31.5993 32.4997C33.3497 30.7494 34.333 28.3754 34.333 25.9001C34.333 23.4247 33.3497 21.0507 31.5993 19.3004C29.849 17.5501 27.475 16.5667 24.9997 16.5667C22.5243 16.5667 20.1504 17.5501 18.4 19.3004C16.6497 21.0507 15.6663 23.4247 15.6663 25.9001C15.6663 28.3754 16.6497 30.7494 18.4 32.4997C20.1504 34.2501 22.5243 35.2334 24.9997 35.2334V35.2334ZM21.4997 21.2334H28.4997L31.4163 25.3167L24.9997 31.7334L18.583 25.3167L21.4997 21.2334ZM22.7013 23.5667L21.628 25.0717L24.9997 28.4434L28.3713 25.0717L27.298 23.5667H22.7013V23.5667Z" fill="#5BB5A2"/>
</svg>
