<svg width="50" height="51" viewBox="0 0 50 51" fill="none" xmlns="http://www.w3.org/2000/svg">
<rect y="0.900146" width="50" height="50" rx="25" fill="#E8F2EE"/>
<path d="M24.9997 37.5669C18.5562 37.5669 13.333 32.3437 13.333 25.9002C13.333 19.4567 18.5562 14.2335 24.9997 14.2335C31.4432 14.2335 36.6663 19.4567 36.6663 25.9002C36.6663 32.3437 31.4432 37.5669 24.9997 37.5669ZM24.9997 35.2335C27.475 35.2335 29.849 34.2502 31.5993 32.4999C33.3497 30.7495 34.333 28.3755 34.333 25.9002C34.333 23.4248 33.3497 21.0509 31.5993 19.3005C29.849 17.5502 27.475 16.5669 24.9997 16.5669C22.5243 16.5669 20.1504 17.5502 18.4 19.3005C16.6497 21.0509 15.6663 23.4248 15.6663 25.9002C15.6663 28.3755 16.6497 30.7495 18.4 32.4999C20.1504 34.2502 22.5243 35.2335 24.9997 35.2335ZM22.7247 24.7335H28.4997V27.0669H22.7247C22.8257 27.5631 23.0543 28.0244 23.3878 28.4055C23.7212 28.7866 24.1482 29.0743 24.6266 29.2403C25.1051 29.4063 25.6185 29.4448 26.1163 29.3522C26.6142 29.2595 27.0793 29.0388 27.466 28.7119L29.4493 30.0337C28.7678 30.7756 27.8872 31.3058 26.9127 31.5609C25.9381 31.8161 24.9107 31.7854 23.953 31.4726C22.9954 31.1599 22.148 30.5782 21.5119 29.7969C20.8758 29.0157 20.4779 28.068 20.3657 27.0669H19.1663V24.7335H20.3645C20.4763 23.7319 20.8741 22.7836 21.5104 22.0019C22.1466 21.2202 22.9944 20.6382 23.9525 20.3254C24.9106 20.0125 25.9385 19.9821 26.9134 20.2376C27.8884 20.4932 28.7691 21.024 29.4505 21.7667L27.466 23.0885C27.0793 22.7615 26.6142 22.5408 26.1163 22.4482C25.6185 22.3555 25.1051 22.3941 24.6266 22.5601C24.1482 22.7261 23.7212 23.0138 23.3878 23.3949C23.0543 23.776 22.8257 24.2373 22.7247 24.7335Z" fill="#5BB5A2"/>
</svg>
