<svg width="50" height="51" viewBox="0 0 50 51" fill="none" xmlns="http://www.w3.org/2000/svg">
<rect y="0.900146" width="50" height="50" rx="25" fill="#E8F2EE"/>
<path d="M13.333 35.2335H36.6663V37.5669H13.333V35.2335ZM15.6663 25.9002H17.9997V34.0669H15.6663V25.9002ZM21.4997 25.9002H23.833V34.0669H21.4997V25.9002ZM26.1663 25.9002H28.4997V34.0669H26.1663V25.9002ZM31.9997 25.9002H34.333V34.0669H31.9997V25.9002ZM13.333 20.0669L24.9997 14.2335L36.6663 20.0669V24.7335H13.333V20.0669ZM15.6663 21.5089V22.4002H34.333V21.5089L24.9997 16.8422L15.6663 21.5089ZM24.9997 21.2335C24.6903 21.2335 24.3935 21.1106 24.1747 20.8918C23.9559 20.673 23.833 20.3763 23.833 20.0669C23.833 19.7574 23.9559 19.4607 24.1747 19.2419C24.3935 19.0231 24.6903 18.9002 24.9997 18.9002C25.3091 18.9002 25.6058 19.0231 25.8246 19.2419C26.0434 19.4607 26.1663 19.7574 26.1663 20.0669C26.1663 20.3763 26.0434 20.673 25.8246 20.8918C25.6058 21.1106 25.3091 21.2335 24.9997 21.2335Z" fill="#5BB5A2"/>
</svg>
