<svg width="50" height="51" viewBox="0 0 50 51" fill="none" xmlns="http://www.w3.org/2000/svg">
<rect y="0.900146" width="50" height="50" rx="25" fill="#E8F2EE"/>
<path d="M24.9997 37.5669C18.5562 37.5669 13.333 32.3437 13.333 25.9002C13.333 19.4567 18.5562 14.2335 24.9997 14.2335C31.4432 14.2335 36.6663 19.4567 36.6663 25.9002C36.6663 32.3437 31.4432 37.5669 24.9997 37.5669ZM22.328 34.845C21.177 32.4036 20.5102 29.7621 20.3645 27.0669H15.7387C15.9657 28.8622 16.7092 30.553 17.879 31.9338C19.0488 33.3146 20.5944 34.326 22.328 34.845V34.845ZM22.7013 27.0669C22.8775 29.9124 23.6907 32.5852 24.9997 34.9442C26.344 32.5228 27.1294 29.8312 27.298 27.0669H22.7013V27.0669ZM34.2607 27.0669H29.6348C29.4892 29.7621 28.8224 32.4036 27.6713 34.845C29.405 34.326 30.9506 33.3146 32.1203 31.9338C33.2901 30.553 34.0337 28.8622 34.2607 27.0669V27.0669ZM15.7387 24.7335H20.3645C20.5102 22.0383 21.177 19.3968 22.328 16.9554C20.5944 17.4744 19.0488 18.4857 17.879 19.8665C16.7092 21.2473 15.9657 22.9381 15.7387 24.7335V24.7335ZM22.7025 24.7335H27.2968C27.1286 21.9692 26.3436 19.2776 24.9997 16.8562C23.6553 19.2775 22.87 21.9691 22.7013 24.7335H22.7025ZM27.6713 16.9554C28.8224 19.3968 29.4892 22.0383 29.6348 24.7335H34.2607C34.0337 22.9381 33.2901 21.2473 32.1203 19.8665C30.9506 18.4857 29.405 17.4744 27.6713 16.9554V16.9554Z" fill="#5BB5A2"/>
</svg>
