<svg width="50" height="51" viewBox="0 0 50 51" fill="none" xmlns="http://www.w3.org/2000/svg">
<rect y="0.900208" width="50" height="50" rx="25" fill="#E8F2EE"/>
<path d="M14.4997 15.4002H35.4997C35.8091 15.4002 36.1058 15.5231 36.3246 15.7419C36.5434 15.9607 36.6663 16.2575 36.6663 16.5669V35.2335C36.6663 35.543 36.5434 35.8397 36.3246 36.0585C36.1058 36.2773 35.8091 36.4002 35.4997 36.4002H14.4997C14.1903 36.4002 13.8935 36.2773 13.6747 36.0585C13.4559 35.8397 13.333 35.543 13.333 35.2335V16.5669C13.333 16.2575 13.4559 15.9607 13.6747 15.7419C13.8935 15.5231 14.1903 15.4002 14.4997 15.4002ZM34.333 25.9002H15.6663V34.0669H34.333V25.9002ZM34.333 21.2335V17.7335H15.6663V21.2335H34.333Z" fill="#5BB5A2"/>
</svg>
