<svg width="50" height="51" viewBox="0 0 50 51" fill="none" xmlns="http://www.w3.org/2000/svg">
<rect y="0.900146" width="50" height="50" rx="25" fill="#E8F2EE"/>
<path d="M22.6663 35.2335H17.9997V37.5669H15.6663V35.2335H14.4997C14.1903 35.2335 13.8935 35.1106 13.6747 34.8918C13.4559 34.673 13.333 34.3763 13.333 34.0669V16.5669C13.333 16.2574 13.4559 15.9607 13.6747 15.7419C13.8935 15.5231 14.1903 15.4002 14.4997 15.4002H22.6663V13.7552C22.6664 13.6705 22.6849 13.5869 22.7205 13.51C22.7561 13.4332 22.808 13.3651 22.8726 13.3103C22.9372 13.2556 23.013 13.2156 23.0946 13.1931C23.1763 13.1706 23.2618 13.1661 23.3453 13.18L35.691 15.238C35.9634 15.2833 36.2109 15.4238 36.3895 15.6344C36.5681 15.845 36.6662 16.1122 36.6663 16.3884V18.9002H37.833V21.2335H36.6663V29.4002H37.833V31.7335H36.6663V34.2454C36.6662 34.5215 36.5681 34.7887 36.3895 34.9993C36.2109 35.2099 35.9634 35.3504 35.691 35.3957L34.333 35.622V37.5669H31.9997V36.0117L23.3453 37.4537C23.2618 37.4676 23.1763 37.4631 23.0946 37.4406C23.013 37.4181 22.9372 37.3781 22.8726 37.3234C22.808 37.2686 22.7561 37.2005 22.7205 37.1237C22.6849 37.0468 22.6664 36.9632 22.6663 36.8785V35.2335ZM24.9997 34.8135L34.333 33.2572V17.3765L24.9997 15.8214V34.8124V34.8135ZM30.2497 28.2335C29.2837 28.2335 28.4997 26.9269 28.4997 25.3169C28.4997 23.7069 29.2837 22.4002 30.2497 22.4002C31.2157 22.4002 31.9997 23.7069 31.9997 25.3169C31.9997 26.9269 31.2157 28.2335 30.2497 28.2335Z" fill="#5BB5A2"/>
</svg>
