<svg width="50" height="51" viewBox="0 0 50 51" fill="none" xmlns="http://www.w3.org/2000/svg">
<rect y="0.900146" width="50" height="50" rx="25" fill="#E8F2EE"/>
<path d="M11.8047 20.0633C15.537 17.0397 20.1963 15.3931 24.9997 15.4002C29.9989 15.4002 34.5897 17.1467 38.1947 20.0633L36.7294 21.8787C33.4116 19.1908 29.2696 17.727 24.9997 17.7335C20.5559 17.7335 16.476 19.2852 13.27 21.8787L11.8047 20.0633ZM15.4692 24.6017C18.1649 22.4177 21.5303 21.2283 24.9997 21.2335C28.4689 21.2284 31.8341 22.4173 34.5302 24.6005L33.0637 26.4158C30.7827 24.5682 27.9351 23.5622 24.9997 23.5668C21.9454 23.5668 19.1395 24.6343 16.9357 26.4158L15.4692 24.6005V24.6017ZM19.1349 29.14C20.7937 27.7959 22.8647 27.0638 24.9997 27.0668C27.221 27.0668 29.2615 27.8427 30.8645 29.1388L29.398 30.9542C28.1539 29.9464 26.6008 29.3977 24.9997 29.4002C23.3337 29.4002 21.803 29.9823 20.6014 30.9542L19.1349 29.1388V29.14ZM22.8005 33.6783C23.4224 33.174 24.199 32.8992 24.9997 32.9002C25.8327 32.9002 26.598 33.1918 27.1989 33.6772L24.9997 36.4002L22.8005 33.6772V33.6783Z" fill="#5BB5A2"/>
</svg>
