<svg width="40" height="41" viewBox="0 0 40 41" fill="none" xmlns="http://www.w3.org/2000/svg">
<rect y="0.223633" width="40" height="40" rx="6" fill="#5BB5A2"/>
<path d="M11.8088 16.1078C12.5715 14.5891 13.7415 13.3125 15.1881 12.4205C16.6346 11.5286 18.3007 11.0565 20.0002 11.057C22.4706 11.057 24.5459 11.9645 26.1327 13.4449L23.5046 16.0739C22.554 15.1655 21.3458 14.7026 20.0002 14.7026C17.6122 14.7026 15.591 16.3159 14.8714 18.482C14.6881 19.032 14.5836 19.6187 14.5836 20.2237C14.5836 20.8287 14.6881 21.4153 14.8714 21.9653C15.5919 24.1323 17.6122 25.7448 20.0002 25.7448C21.2331 25.7448 22.2827 25.4193 23.104 24.8693C23.5801 24.5558 23.9878 24.149 24.3023 23.6735C24.6167 23.198 24.8315 22.6637 24.9337 22.1028H20.0002V18.5572H28.6333C28.7415 19.1567 28.8002 19.7818 28.8002 20.4318C28.8002 23.2239 27.801 25.5743 26.0667 27.1693C24.5505 28.5699 22.4752 29.3903 20.0002 29.3903C18.7962 29.3908 17.604 29.154 16.4917 28.6936C15.3793 28.2331 14.3686 27.5579 13.5173 26.7066C12.666 25.8553 11.9908 24.8445 11.5303 23.7322C11.0698 22.6198 10.833 21.4276 10.8335 20.2237C10.8335 18.7442 11.1873 17.3453 11.8088 16.1078Z" fill="white"/>
</svg>
