<svg width="40" height="41" viewBox="0 0 40 41" fill="none" xmlns="http://www.w3.org/2000/svg">
<rect y="0.223633" width="40" height="40" rx="6" fill="#5BB5A2"/>
<path d="M29.3153 14.4084C28.6155 14.7179 27.8733 14.9212 27.1134 15.0115C27.9144 14.5325 28.5138 13.7786 28.8001 12.8904C28.0484 13.3377 27.2244 13.6512 26.3654 13.8208C25.7885 13.2035 25.0238 12.7941 24.1902 12.6562C23.3565 12.5184 22.5007 12.6598 21.7558 13.0585C21.0108 13.4572 20.4185 14.0909 20.0708 14.861C19.7231 15.6311 19.6396 16.4945 19.8333 17.3169C18.309 17.2405 16.8177 16.8444 15.4565 16.1543C14.0952 15.4642 12.8942 14.4955 11.9316 13.3111C11.5909 13.8964 11.4118 14.5616 11.4128 15.2389C11.4128 16.568 12.0893 17.7423 13.1178 18.4298C12.5091 18.4106 11.9139 18.2462 11.3816 17.9504V17.998C11.3818 18.8832 11.6881 19.7412 12.2486 20.4263C12.8092 21.1115 13.5894 21.5817 14.457 21.7573C13.892 21.9104 13.2996 21.933 12.7245 21.8233C12.9692 22.5852 13.4459 23.2516 14.0882 23.7291C14.7304 24.2066 15.5058 24.4713 16.3059 24.4862C15.5107 25.1107 14.6002 25.5724 13.6264 25.8448C12.6526 26.1173 11.6347 26.1951 10.6309 26.0739C12.3832 27.2008 14.4232 27.7991 16.5067 27.7972C23.5586 27.7972 27.415 21.9553 27.415 16.8889C27.415 16.7239 27.4104 16.557 27.4031 16.3939C28.1537 15.8513 28.8016 15.1793 29.3162 14.4093L29.3153 14.4084Z" fill="white"/>
</svg>
